# xmcd
#
# Track frame offsets:
#	150
#	17551
#	30995
#	48484
#	64086
#	82573
#	101886
#	119914
#	137012
#	151922
#
# Disc length: 2266 seconds
#
# Revision: 0
# Processed by: cddbd v1.5.1PL2 Copyright (c) Steve Scherf et al.
# Submitted via: EasyCDDAExtractor 9.0.0.1
#
DISCID=7808d80a
DTITLE=BandaLusa - Tonto de Saudade
DYEAR=2006
DGENRE=Tribal
TTITLE0=Tonto de Saudade
TTITLE1=Fica Comigo Esta Noite
TTITLE2=Onde Estara
TTITLE3=Rosas que eu te Mando
TTITLE4=Cuida de mim Deus
TTITLE5=Loucura de Momento
TTITLE6=Caso de Emergência
TTITLE7=Ser Amante (A Minha Maneira)
TTITLE8=Vou Fechar este Cabaret
TTITLE9=Por Esse Amor que eu Perdi
EXTD=
EXTT0=
EXTT1=
EXTT2=
EXTT3=
EXTT4=
EXTT5=
EXTT6=
EXTT7=
EXTT8=
EXTT9=
PLAYORDER=
